<svg xmlns="http://www.w3.org/2000/svg" width="61.563" height="61.462" viewBox="0 0 61.563 61.462">
  <g id="logo" transform="translate(-11.7 1011.566)">
    <path id="Path_1" data-name="Path 1" d="M36.852-1011.556a17.666,17.666,0,0,0-11.136,5.1,17.647,17.647,0,0,0-4.947,9.475c-.037.234-.1.6-.142.8-.043.24-.074,2.086-.092,5.224l-.025,4.848-4.405,11.45L11.7-963.209l.074.381c.437,2.369,4.276,5.617,9.6,8.115a49.824,49.824,0,0,0,15.634,4.331,39.6,39.6,0,0,0,5.476.277,39.6,39.6,0,0,0,5.476-.277,50.454,50.454,0,0,0,14.428-3.778c5.943-2.584,10.336-6.11,10.8-8.669l.074-.381-4.405-11.45-4.405-11.45-.025-4.848c-.018-3.138-.049-4.984-.092-5.224-.037-.2-.1-.566-.142-.8a17.75,17.75,0,0,0-5.5-10.01,17.727,17.727,0,0,0-8.281-4.233c-1.649-.338-1.452-.326-7.592-.338C39.676-1011.568,36.987-1011.568,36.852-1011.556ZM36.483-992.7a14.224,14.224,0,0,1,4.744,2.018,2.008,2.008,0,0,0,2.51.006,14.04,14.04,0,0,1,4.75-2.024,15.525,15.525,0,0,1,3.587-.129,10.119,10.119,0,0,1,7.857,4.854,22.724,22.724,0,0,1,1.655,3.107c.154.369,2.1,5.322,4.313,11.013,3.9,10,4.03,10.361,4.011,10.7a1.013,1.013,0,0,1-1.077.984,1.1,1.1,0,0,1-.917-.535c-.074-.135-1.957-4.928-4.178-10.644s-4.2-10.73-4.381-11.13a12.378,12.378,0,0,0-2.683-4.011,7.729,7.729,0,0,0-5.267-2.184,9.9,9.9,0,0,0-6.374,1.778,4.457,4.457,0,0,1-2.055.806,5.525,5.525,0,0,1-1.563-.086,6.18,6.18,0,0,1-1.544-.757A12.14,12.14,0,0,0,36-990.563a6.988,6.988,0,0,0-1.667-.129,8.771,8.771,0,0,0-4.128.849c-2.036.991-3.618,2.947-4.916,6.091-.123.3-1.957,5-4.073,10.429S17.287-963.246,17.182-963c-.209.5-.425.714-.818.794a1.02,1.02,0,0,1-1.31-.948c-.018-.351.08-.621,3.944-10.539,4.639-11.905,4.4-11.315,5.064-12.6,2.08-4.042,4.731-6.042,8.657-6.534.246-.031,1.052-.043,1.8-.031A8.537,8.537,0,0,1,36.483-992.7Zm-.584,5.377a5.964,5.964,0,0,1,2.935,1.231,4.708,4.708,0,0,1,1.089,1.563c.326.775.345.935.345,3.033,0,1.913,0,1.95-.135,2.147a1.528,1.528,0,0,1-.474.369c-.658.338-.683.338-5.943.338H28.853l-.351-.142a2.3,2.3,0,0,1-1.169-1.107,1.656,1.656,0,0,1-.2-1.027,7.141,7.141,0,0,1,1.1-3.495A7.733,7.733,0,0,1,32.36-987.1,9.258,9.258,0,0,1,35.9-987.327Zm15.6.006a8.565,8.565,0,0,1,3.562,1.329,5.456,5.456,0,0,1,2.455,3.286,4.959,4.959,0,0,1,.32,1.784,1.656,1.656,0,0,1-.2,1.027,2.3,2.3,0,0,1-1.169,1.107l-.351.142H51.249c-5.26,0-5.285,0-5.943-.338a1.452,1.452,0,0,1-.474-.375l-.142-.209.018-2.092.018-2.092.2-.529a4.247,4.247,0,0,1,2.135-2.43A7.635,7.635,0,0,1,51.495-987.321Zm-8,11.056a3.35,3.35,0,0,1,1.421.923,3.238,3.238,0,0,1,.714,1.218c.135.381.142.492.142,2.338l.006,1.938H39.19l-.018-1.538c-.006-.849.012-1.778.043-2.067a3.17,3.17,0,0,1,.677-1.692A3.244,3.244,0,0,1,43.49-976.264Zm-2.116,13v4.4H38.113v-8.8h3.261Zm5.476,0v4.4H43.589v-8.8H46.85ZM35.9-962.126v3.261H33.683v-4.4l1.058-1.058c.584-.584,1.083-1.064,1.107-1.064S35.9-963.922,35.9-962.126Zm14.317-2.2,1.064,1.064v4.4H49.065v-3.261c0-1.8.018-3.261.043-3.261S49.631-964.907,50.215-964.328Zm-20.254,3.987a1.629,1.629,0,0,1,.394,2.726,1.648,1.648,0,0,1-2.646-.806,1.894,1.894,0,0,1,.117-1.157,2.4,2.4,0,0,1,.751-.763A1.742,1.742,0,0,1,29.961-960.342Zm26.339-.031a2.071,2.071,0,0,1,.837.794,1.894,1.894,0,0,1,.117,1.157A1.663,1.663,0,0,1,55.2-957.29a1.644,1.644,0,0,1-.394-2.959A1.7,1.7,0,0,1,56.3-960.372Z" transform="translate(0)" fill="rgba(255,255,255,0.8)"/>
  </g>
</svg>
